<?xml version="1.0" encoding="UTF-8" standalone="no"?>
<!DOCTYPE svg PUBLIC "-//W3C//DTD SVG 1.1//EN"
 "http://www.w3.org/Graphics/SVG/1.1/DTD/svg11.dtd">
<!-- Generated by graphviz version 2.38.0 (20140413.2041)
 -->
<!-- Title: %3 Pages: 1 -->
<svg width="182pt" height="120pt"
 viewBox="0.00 0.00 181.50 119.98" xmlns="http://www.w3.org/2000/svg" xmlns:xlink="http://www.w3.org/1999/xlink">
<g id="graph0" class="graph" transform="scale(1 1) rotate(0) translate(4 115.983)">
<title>%3</title>
<polygon fill="white" stroke="none" points="-4,4 -4,-115.983 177.5,-115.983 177.5,4 -4,4"/>
<!-- x -->
<g id="node1" class="node"><title>x</title>
<polygon fill="lightgray" stroke="black" points="21,-111.983 1.77636e-15,-111.983 1.77636e-15,-93.9828 21,-93.9828 21,-111.983"/>
<text text-anchor="middle" x="10.5" y="-100.783" font-family="Times,serif" font-size="9.00">x</text>
</g>
<!-- dx -->
<g id="node2" class="node"><title>dx</title>
<polygon fill="lightgray" stroke="black" points="65.5,-111.983 39.5,-111.983 39.5,-93.9828 65.5,-93.9828 65.5,-111.983"/>
<text text-anchor="middle" x="52.5" y="-100.783" font-family="Times,serif" font-size="9.00">dx</text>
</g>
<!-- control -->
<g id="node5" class="node"><title>control</title>
<ellipse fill="lightblue" stroke="black" cx="100.5" cy="-28.9914" rx="28.9828" ry="28.9828"/>
<text text-anchor="middle" x="100.5" y="-26.7914" font-family="Times,serif" font-size="9.00">control</text>
</g>
<!-- dx&#45;&gt;control -->
<g id="edge1" class="edge"><title>dx&#45;&gt;control</title>
<path fill="none" stroke="green" stroke-width="0.406305" d="M58.0062,-93.7244C63.2375,-85.8784 71.4433,-73.5713 79.2546,-61.8557"/>
<polygon fill="green" stroke="green" stroke-width="0.406305" points="82.1891,-63.7636 84.8245,-53.5018 76.3649,-59.8804 82.1891,-63.7636"/>
</g>
<!-- theta -->
<g id="node3" class="node"><title>theta</title>
<polygon fill="lightgray" stroke="black" points="117,-111.983 84,-111.983 84,-93.9828 117,-93.9828 117,-111.983"/>
<text text-anchor="middle" x="100.5" y="-100.783" font-family="Times,serif" font-size="9.00">theta</text>
</g>
<!-- theta&#45;&gt;control -->
<g id="edge2" class="edge"><title>theta&#45;&gt;control</title>
<path fill="none" stroke="green" stroke-width="0.388516" d="M100.5,-93.7244C100.5,-87.2553 100.5,-77.7535 100.5,-68.0511"/>
<polygon fill="green" stroke="green" stroke-width="0.388516" points="104,-67.9861 100.5,-57.9862 97.0001,-67.9862 104,-67.9861"/>
</g>
<!-- dtheta -->
<g id="node4" class="node"><title>dtheta</title>
<polygon fill="lightgray" stroke="black" points="173.5,-111.983 135.5,-111.983 135.5,-93.9828 173.5,-93.9828 173.5,-111.983"/>
<text text-anchor="middle" x="154.5" y="-100.783" font-family="Times,serif" font-size="9.00">dtheta</text>
</g>
<!-- dtheta&#45;&gt;control -->
<g id="edge3" class="edge"><title>dtheta&#45;&gt;control</title>
<path fill="none" stroke="green" stroke-width="1.14333" d="M148.306,-93.7244C142.228,-85.6222 132.582,-72.7627 123.542,-60.71"/>
<polygon fill="green" stroke="green" stroke-width="1.14333" points="126.231,-58.4626 117.431,-52.5631 120.631,-62.663 126.231,-58.4626"/>
</g>
</g>
</svg>
