<?xml version="1.0" encoding="UTF-8" standalone="no"?>
<!DOCTYPE svg PUBLIC "-//W3C//DTD SVG 1.1//EN"
 "http://www.w3.org/Graphics/SVG/1.1/DTD/svg11.dtd">
<!-- Generated by graphviz version 2.38.0 (20140413.2041)
 -->
<!-- Title: %3 Pages: 1 -->
<svg width="317pt" height="294pt"
 viewBox="0.00 0.00 317.23 293.81" xmlns="http://www.w3.org/2000/svg" xmlns:xlink="http://www.w3.org/1999/xlink">
<g id="graph0" class="graph" transform="scale(1 1) rotate(0) translate(4 289.806)">
<title>%3</title>
<polygon fill="white" stroke="none" points="-4,4 -4,-289.806 313.233,-289.806 313.233,4 -4,4"/>
<!-- A -->
<g id="node1" class="node"><title>A</title>
<polygon fill="lightgray" stroke="black" points="121.24,-285.806 98.2399,-285.806 98.2399,-267.806 121.24,-267.806 121.24,-285.806"/>
<text text-anchor="middle" x="109.74" y="-274.606" font-family="Times,serif" font-size="9.00">A</text>
</g>
<!-- 685 -->
<g id="node4" class="node"><title>685</title>
<ellipse fill="white" stroke="black" cx="222.74" cy="-132.167" rx="21.4286" ry="21.4286"/>
<text text-anchor="middle" x="222.74" y="-129.967" font-family="Times,serif" font-size="9.00">685</text>
</g>
<!-- A&#45;&gt;685 -->
<g id="edge15" class="edge"><title>A&#45;&gt;685</title>
<path fill="none" stroke="green" stroke-width="0.201964" d="M121.386,-273.863C141.552,-269.853 182.816,-258.675 203.74,-231.806 218.773,-212.502 223.035,-184.731 223.817,-163.571"/>
<polygon fill="green" stroke="green" stroke-width="0.201964" points="227.318,-163.53 223.951,-153.485 220.319,-163.438 227.318,-163.53"/>
</g>
<!-- 686 -->
<g id="node5" class="node"><title>686</title>
<ellipse fill="white" stroke="black" cx="173.74" cy="-210.593" rx="21.4286" ry="21.4286"/>
<text text-anchor="middle" x="173.74" y="-208.393" font-family="Times,serif" font-size="9.00">686</text>
</g>
<!-- A&#45;&gt;686 -->
<g id="edge6" class="edge"><title>A&#45;&gt;686</title>
<path fill="none" stroke="red" stroke-width="0.297203" d="M117.846,-267.673C126.344,-259.147 140.066,-245.379 151.787,-233.619"/>
<polygon fill="red" stroke="red" stroke-width="0.297203" points="154.544,-235.81 159.125,-226.257 149.586,-230.869 154.544,-235.81"/>
</g>
<!-- 687 -->
<g id="node6" class="node"><title>687</title>
<ellipse fill="white" stroke="black" cx="124.74" cy="-132.167" rx="21.4286" ry="21.4286"/>
<text text-anchor="middle" x="124.74" y="-129.967" font-family="Times,serif" font-size="9.00">687</text>
</g>
<!-- A&#45;&gt;687 -->
<g id="edge3" class="edge"><title>A&#45;&gt;687</title>
<path fill="none" stroke="green" stroke-width="0.107879" d="M109.208,-267.66C108.341,-252.282 107.067,-217.955 110.74,-189.38 111.87,-180.586 113.882,-171.183 116.035,-162.632"/>
<polygon fill="green" stroke="green" stroke-width="0.107879" points="119.482,-163.289 118.68,-152.724 112.719,-161.483 119.482,-163.289"/>
</g>
<!-- 688 -->
<g id="node7" class="node"><title>688</title>
<ellipse fill="white" stroke="black" cx="37.7399" cy="-210.593" rx="21.4286" ry="21.4286"/>
<text text-anchor="middle" x="37.7399" y="-208.393" font-family="Times,serif" font-size="9.00">688</text>
</g>
<!-- A&#45;&gt;688 -->
<g id="edge13" class="edge"><title>A&#45;&gt;688</title>
<path fill="none" stroke="green" stroke-width="0.327267" d="M100.621,-267.673C90.6253,-258.759 74.2059,-244.115 60.6517,-232.027"/>
<polygon fill="green" stroke="green" stroke-width="0.327267" points="62.8653,-229.311 53.0726,-225.267 58.2061,-234.535 62.8653,-229.311"/>
</g>
<!-- 689 -->
<g id="node8" class="node"><title>689</title>
<ellipse fill="white" stroke="black" cx="271.74" cy="-210.593" rx="21.4286" ry="21.4286"/>
<text text-anchor="middle" x="271.74" y="-208.393" font-family="Times,serif" font-size="9.00">689</text>
</g>
<!-- A&#45;&gt;689 -->
<g id="edge7" class="edge"><title>A&#45;&gt;689</title>
<path fill="none" stroke="red" stroke-width="0.227692" d="M121.586,-272.524C144.396,-266.027 195.778,-250.524 236.74,-231.806 239.432,-230.576 242.188,-229.202 244.913,-227.766"/>
<polygon fill="red" stroke="red" stroke-width="0.227692" points="246.882,-230.675 253.921,-222.757 243.481,-224.557 246.882,-230.675"/>
</g>
<!-- 690 -->
<g id="node9" class="node"><title>690</title>
<ellipse fill="white" stroke="black" cx="26.7399" cy="-132.167" rx="21.4286" ry="21.4286"/>
<text text-anchor="middle" x="26.7399" y="-129.967" font-family="Times,serif" font-size="9.00">690</text>
</g>
<!-- A&#45;&gt;690 -->
<g id="edge16" class="edge"><title>A&#45;&gt;690</title>
<path fill="none" stroke="red" stroke-width="0.262617" d="M97.9644,-274.774C75.781,-272.121 28.1932,-262.904 7.73992,-231.806 -6.38781,-210.326 2.05666,-180.874 11.7613,-159.755"/>
<polygon fill="red" stroke="red" stroke-width="0.262617" points="14.9447,-161.213 16.2322,-150.697 8.66766,-158.115 14.9447,-161.213"/>
</g>
<!-- B -->
<g id="node2" class="node"><title>B</title>
<polygon fill="lightgray" stroke="black" points="185.24,-285.806 162.24,-285.806 162.24,-267.806 185.24,-267.806 185.24,-285.806"/>
<text text-anchor="middle" x="173.74" y="-274.606" font-family="Times,serif" font-size="9.00">B</text>
</g>
<!-- B&#45;&gt;685 -->
<g id="edge9" class="edge"><title>B&#45;&gt;685</title>
<path fill="none" stroke="red" stroke-width="0.2845" d="M185.516,-275.902C211.671,-275.398 274.439,-270.06 301.74,-231.806 312.694,-216.458 310.383,-206.138 301.74,-189.38 291.258,-169.057 269.656,-154.474 251.686,-145.262"/>
<polygon fill="red" stroke="red" stroke-width="0.2845" points="252.701,-141.866 242.171,-140.694 249.671,-148.177 252.701,-141.866"/>
</g>
<!-- B&#45;&gt;686 -->
<g id="edge4" class="edge"><title>B&#45;&gt;686</title>
<path fill="none" stroke="red" stroke-width="0.349044" d="M173.74,-267.673C173.74,-261.131 173.74,-251.502 173.74,-242.062"/>
<polygon fill="red" stroke="red" stroke-width="0.349044" points="177.24,-242.048 173.74,-232.048 170.24,-242.048 177.24,-242.048"/>
</g>
<!-- B&#45;&gt;687 -->
<g id="edge14" class="edge"><title>B&#45;&gt;687</title>
<path fill="none" stroke="green" stroke-width="0.715043" d="M166.645,-267.646C159.721,-259.237 149.423,-245.464 143.74,-231.806 134.652,-209.969 129.861,-183.584 127.364,-163.6"/>
<polygon fill="green" stroke="green" stroke-width="0.715043" points="130.825,-163.054 126.229,-153.508 123.869,-163.837 130.825,-163.054"/>
</g>
<!-- B&#45;&gt;688 -->
<g id="edge19" class="edge"><title>B&#45;&gt;688</title>
<path fill="none" stroke="red" stroke-width="0.32895" d="M162.145,-270.331C141.022,-260.358 95.7173,-238.967 66.0045,-224.938"/>
<polygon fill="red" stroke="red" stroke-width="0.32895" points="67.1202,-221.595 56.5832,-220.49 64.1315,-227.924 67.1202,-221.595"/>
</g>
<!-- B&#45;&gt;689 -->
<g id="edge10" class="edge"><title>B&#45;&gt;689</title>
<path fill="none" stroke="green" stroke-width="0.187082" d="M185.367,-268.188C200.14,-258.508 226.072,-241.516 245.677,-228.67"/>
<polygon fill="green" stroke="green" stroke-width="0.187082" points="247.731,-231.509 254.177,-223.101 243.894,-225.654 247.731,-231.509"/>
</g>
<!-- A XOR B -->
<g id="node3" class="node"><title>A XOR B</title>
<ellipse fill="lightblue" stroke="black" cx="173.74" cy="-37.4767" rx="37.4533" ry="37.4533"/>
<text text-anchor="middle" x="173.74" y="-35.2767" font-family="Times,serif" font-size="9.00">A XOR B</text>
</g>
<!-- 685&#45;&gt;A XOR B -->
<g id="edge18" class="edge"><title>685&#45;&gt;A XOR B</title>
<path fill="none" stroke="red" stroke-width="0.345993" d="M213.059,-112.854C208.085,-103.446 201.806,-91.5682 195.735,-80.0831"/>
<polygon fill="red" stroke="red" stroke-width="0.345993" points="198.707,-78.216 190.939,-71.0111 192.518,-81.4875 198.707,-78.216"/>
</g>
<!-- 686&#45;&gt;A XOR B -->
<g id="edge1" class="edge"><title>686&#45;&gt;A XOR B</title>
<path fill="none" stroke="green" stroke-width="0.155873" d="M173.74,-189.292C173.74,-163.859 173.74,-119.486 173.74,-85.4338"/>
<polygon fill="green" stroke="green" stroke-width="0.155873" points="177.24,-85.2297 173.74,-75.2297 170.24,-85.2297 177.24,-85.2297"/>
</g>
<!-- 686&#45;&gt;685 -->
<g id="edge8" class="edge"><title>686&#45;&gt;685</title>
<path fill="none" stroke="green" stroke-width="0.216777" d="M184.859,-192.251C191.124,-182.479 199.073,-170.081 206.069,-159.168"/>
<polygon fill="green" stroke="green" stroke-width="0.216777" points="209.214,-160.748 211.665,-150.44 203.321,-156.97 209.214,-160.748"/>
</g>
<!-- 686&#45;&gt;687 -->
<g id="edge12" class="edge"><title>686&#45;&gt;687</title>
<path fill="none" stroke="red" stroke-width="0.39222" d="M162.621,-192.251C156.356,-182.479 148.407,-170.081 141.41,-159.168"/>
<polygon fill="red" stroke="red" stroke-width="0.39222" points="144.159,-156.97 135.815,-150.44 138.266,-160.748 144.159,-156.97"/>
</g>
<!-- 688&#45;&gt;A XOR B -->
<g id="edge11" class="edge"><title>688&#45;&gt;A XOR B</title>
<path fill="none" stroke="green" stroke-width="0.481057" d="M46.3025,-191.086C56.3254,-170.434 74.1921,-136.561 94.7399,-110.953 107.124,-95.5199 122.846,-80.4056 136.999,-68.0071"/>
<polygon fill="green" stroke="green" stroke-width="0.481057" points="139.367,-70.5867 144.669,-61.4136 134.804,-65.2785 139.367,-70.5867"/>
</g>
<!-- 688&#45;&gt;690 -->
<g id="edge17" class="edge"><title>688&#45;&gt;690</title>
<path fill="none" stroke="green" stroke-width="0.285992" d="M34.8498,-189.513C33.6969,-181.502 32.3447,-172.108 31.0786,-163.311"/>
<polygon fill="green" stroke="green" stroke-width="0.285992" points="34.5379,-162.777 29.6489,-153.378 27.6093,-163.775 34.5379,-162.777"/>
</g>
<!-- 689&#45;&gt;A XOR B -->
<g id="edge5" class="edge"><title>689&#45;&gt;A XOR B</title>
<path fill="none" stroke="green" stroke-width="0.310239" d="M271.489,-189.051C270.416,-168.161 266.431,-135.467 252.74,-110.953 242.938,-93.4034 227.346,-77.7619 212.594,-65.5421"/>
<polygon fill="green" stroke="green" stroke-width="0.310239" points="214.529,-62.6089 204.527,-59.115 210.167,-68.0838 214.529,-62.6089"/>
</g>
<!-- 690&#45;&gt;A XOR B -->
<g id="edge2" class="edge"><title>690&#45;&gt;A XOR B</title>
<path fill="none" stroke="red" stroke-width="0.147274" d="M44.4716,-119.986C66.409,-106.153 104.426,-82.1822 133.571,-63.8047"/>
<polygon fill="red" stroke="red" stroke-width="0.147274" points="135.712,-66.5926 142.304,-58.2983 131.978,-60.6714 135.712,-66.5926"/>
</g>
</g>
</svg>
