<?xml version="1.0" encoding="UTF-8" standalone="no"?>
<!DOCTYPE svg PUBLIC "-//W3C//DTD SVG 1.1//EN"
 "http://www.w3.org/Graphics/SVG/1.1/DTD/svg11.dtd">
<!-- Generated by graphviz version 2.38.0 (20140413.2041)
 -->
<!-- Title: %3 Pages: 1 -->
<svg width="148pt" height="196pt"
 viewBox="0.00 0.00 148.33 195.58" xmlns="http://www.w3.org/2000/svg" xmlns:xlink="http://www.w3.org/1999/xlink">
<g id="graph0" class="graph" transform="scale(1 1) rotate(0) translate(4 191.581)">
<title>%3</title>
<polygon fill="white" stroke="none" points="-4,4 -4,-191.581 144.326,-191.581 144.326,4 -4,4"/>
<!-- input -->
<g id="node1" class="node"><title>input</title>
<polygon fill="lightgray" stroke="black" points="80.0772,-187.581 45.0772,-187.581 45.0772,-169.581 80.0772,-169.581 80.0772,-187.581"/>
<text text-anchor="middle" x="62.5772" y="-176.381" font-family="Times,serif" font-size="9.00">input</text>
</g>
<!-- 434 -->
<g id="node5" class="node"><title>434</title>
<ellipse fill="white" stroke="black" cx="62.5772" cy="-112.368" rx="21.4286" ry="21.4286"/>
<text text-anchor="middle" x="62.5772" y="-110.168" font-family="Times,serif" font-size="9.00">434</text>
</g>
<!-- input&#45;&gt;434 -->
<g id="edge3" class="edge"><title>input&#45;&gt;434</title>
<path fill="none" stroke="red" stroke-width="1.10658" d="M62.5772,-169.448C62.5772,-162.905 62.5772,-153.276 62.5772,-143.837"/>
<polygon fill="red" stroke="red" stroke-width="1.10658" points="66.0773,-143.823 62.5772,-133.823 59.0773,-143.823 66.0773,-143.823"/>
</g>
<!-- gate -->
<g id="node2" class="node"><title>gate</title>
<polygon fill="lightgray" stroke="black" points="129.077,-187.581 98.0772,-187.581 98.0772,-169.581 129.077,-169.581 129.077,-187.581"/>
<text text-anchor="middle" x="113.577" y="-176.381" font-family="Times,serif" font-size="9.00">gate</text>
</g>
<!-- output -->
<g id="node3" class="node"><title>output</title>
<ellipse fill="lightblue" stroke="black" cx="27.5772" cy="-27.5772" rx="27.6545" ry="27.6545"/>
<text text-anchor="middle" x="27.5772" y="-25.3772" font-family="Times,serif" font-size="9.00">output</text>
</g>
<!-- output&#45;&gt;434 -->
<g id="edge6" class="edge"><title>output&#45;&gt;434</title>
<path fill="none" stroke="red" stroke-width="0.340655" d="M42.9051,-50.5461C47.6132,-59.9337 52.4721,-71.0451 56.3425,-81.1855"/>
<polygon fill="red" stroke="red" stroke-width="0.340655" points="53.1604,-82.6795 59.8412,-90.9025 59.7465,-80.3081 53.1604,-82.6795"/>
</g>
<!-- 2625 -->
<g id="node4" class="node"><title>2625</title>
<ellipse fill="white" stroke="black" cx="97.5772" cy="-27.5772" rx="25" ry="25"/>
<text text-anchor="middle" x="97.5772" y="-25.3772" font-family="Times,serif" font-size="9.00">2625</text>
</g>
<!-- 2625&#45;&gt;2625 -->
<g id="edge4" class="edge"><title>2625&#45;&gt;2625</title>
<path fill="none" stroke="green" stroke-width="0.178962" d="M117.808,-42.462C129.47,-45.4997 140.326,-40.5381 140.326,-27.5772 140.326,-18.6665 135.195,-13.5368 128.198,-12.188"/>
<polygon fill="green" stroke="green" stroke-width="0.178962" points="127.627,-8.71155 117.808,-12.6923 127.966,-15.7033 127.627,-8.71155"/>
</g>
<!-- 2625&#45;&gt;434 -->
<g id="edge1" class="edge"><title>2625&#45;&gt;434</title>
<path fill="none" stroke="red" stroke-width="0.632646" d="M93.7853,-52.1112C90.0522,-62.7129 84.792,-75.2485 79.5541,-86.0533"/>
<polygon fill="red" stroke="red" stroke-width="0.632646" points="76.4119,-84.511 74.9958,-95.0108 82.6505,-87.6858 76.4119,-84.511"/>
</g>
<!-- 434&#45;&gt;output -->
<g id="edge2" class="edge"><title>434&#45;&gt;output</title>
<path fill="none" stroke="red" stroke-width="0.65509" d="M50.1586,-95.0108C45.467,-86.2796 40.3713,-75.1678 36.0833,-64.5417"/>
<polygon fill="red" stroke="red" stroke-width="0.65509" points="39.2688,-63.0746 32.4071,-55.002 32.737,-65.5917 39.2688,-63.0746"/>
</g>
<!-- 434&#45;&gt;2625 -->
<g id="edge5" class="edge"><title>434&#45;&gt;2625</title>
<path fill="none" stroke="green" stroke-width="0.903273" d="M65.3131,-90.9025C68.6932,-80.8289 73.7159,-68.5112 78.8826,-57.4943"/>
<polygon fill="green" stroke="green" stroke-width="0.903273" points="82.1619,-58.7563 83.4225,-48.2367 75.8769,-55.6741 82.1619,-58.7563"/>
</g>
</g>
</svg>
